<svg width="35" height="31" viewBox="0 0 35 31" fill="none" xmlns="http://www.w3.org/2000/svg">
    <path d="M7.25002 8.66667C7.25002 7.72318 8.01487 6.95833 8.95835 6.95833H26.0417C26.9852 6.95833 27.75 7.72318 27.75 8.66667C27.75 9.61015 26.9852 10.375 26.0417 10.375H8.95835C8.01487 10.375 7.25002 9.61015 7.25002 8.66667Z" fill="white"/>
    <path d="M8.95835 13.7917C8.01487 13.7917 7.25002 14.5565 7.25002 15.5C7.25002 16.4435 8.01487 17.2083 8.95835 17.2083H15.7917C16.7352 17.2083 17.5 16.4435 17.5 15.5C17.5 14.5565 16.7352 13.7917 15.7917 13.7917H8.95835Z" fill="white"/>
    <path fill-rule="evenodd" clip-rule="evenodd" d="M27.75 24.0417H31.1667C33.0537 24.0417 34.5834 22.512 34.5834 20.625V3.54167C34.5834 1.65469 33.0537 0.125 31.1667 0.125H3.83335C1.94638 0.125 0.416687 1.65469 0.416687 3.54167V20.625C0.416687 22.512 1.94638 24.0417 3.83335 24.0417H17.5V27.4583C17.5 30.7418 21.6799 32.1351 23.65 29.5083L27.75 24.0417ZM20.9167 20.625V27.4583L26.0417 20.625H31.1667V3.54167H3.83335V20.625H20.9167Z" fill="white"/>
</svg>
